<?xml version="1.0" standalone="no"?>
<!DOCTYPE svg PUBLIC "-//W3C//DTD SVG 20010904//EN"
 "http://www.w3.org/TR/2001/REC-SVG-20010904/DTD/svg10.dtd">
<svg version="1.0" xmlns="http://www.w3.org/2000/svg"
 width="72.000000pt" height="72.000000pt" viewBox="0 0 72.000000 72.000000"
 preserveAspectRatio="xMidYMid meet">

<g transform="translate(0.000000,72.000000) scale(0.100000,-0.100000)"
fill="#000000" stroke="none">
<path d="M157 563 c-18 -17 -1 -44 75 -120 l83 -83 -83 -83 c-45 -45 -82 -90
-82 -99 0 -14 19 -28 37 -28 3 0 43 37 89 82 l84 82 85 -83 c58 -57 90 -81
101 -77 8 3 18 6 20 6 2 0 4 8 4 17 0 10 -37 55 -82 100 l-83 83 84 84 c84 84
99 116 57 124 -13 3 -45 -23 -102 -79 l-84 -84 -83 83 c-76 76 -103 93 -120
75z"/>
</g>
</svg>
